<?xml version="1.0" standalone="no"?>
<!DOCTYPE svg PUBLIC "-//W3C//DTD SVG 20010904//EN"
 "http://www.w3.org/TR/2001/REC-SVG-20010904/DTD/svg10.dtd">
<svg version="1.0" xmlns="http://www.w3.org/2000/svg"
 width="1600.000000pt" height="1600.000000pt" viewBox="0 0 1600.000000 1600.000000"
 preserveAspectRatio="xMidYMid meet">

<g transform="translate(0.000000,1600.000000) scale(0.100000,-0.100000)"
fill="#000000" stroke="none">
<path d="M0 8000 l0 -8000 8000 0 8000 0 0 8000 0 8000 -8000 0 -8000 0 0
-8000z m8075 4880 c463 -36 908 -206 1280 -489 199 -151 439 -418 575 -638
l45 -73 82 0 c109 0 285 -31 414 -73 218 -72 396 -183 570 -357 128 -128 193
-218 274 -385 165 -338 178 -736 34 -1088 -16 -40 -29 -77 -29 -82 0 -6 39
-30 88 -54 487 -241 825 -708 929 -1281 21 -118 24 -427 4 -545 -47 -291 -158
-563 -322 -785 -129 -177 -345 -374 -509 -463 l-65 -36 -97 242 -97 242 -10
295 c-14 391 -33 546 -92 778 -29 113 -243 664 -302 775 -38 73 -101 130 -185
170 -60 28 -76 32 -152 31 -102 -1 -171 -26 -243 -86 l-48 -40 -41 37 c-68 62
-139 88 -238 88 -63 0 -99 -5 -139 -21 -30 -12 -57 -20 -59 -17 -7 6 44 250
73 350 14 50 44 132 66 182 23 54 39 109 39 131 0 45 31 124 106 276 86 172
191 325 302 440 l61 63 53 -9 c67 -11 216 -82 288 -137 64 -48 119 -55 163
-21 31 25 51 80 42 120 -13 61 -200 187 -350 237 -95 31 -247 43 -295 23 -39
-16 -169 -153 -257 -272 -88 -118 -149 -219 -224 -372 -33 -67 -64 -122 -68
-124 -5 -2 -100 33 -212 76 -112 44 -285 110 -384 147 -99 37 -184 71 -188 75
-8 7 88 202 138 280 91 140 247 310 354 384 42 30 43 30 111 18 38 -6 131 -32
207 -56 86 -28 148 -42 165 -39 33 6 76 47 84 80 10 36 -4 88 -29 111 -56 52
-378 142 -510 142 -63 0 -67 -2 -143 -56 -235 -168 -409 -385 -556 -690 l-58
-121 -47 -6 c-27 -4 -99 -12 -161 -18 l-113 -12 -97 96 -97 96 -275 117 c-269
113 -393 166 -890 374 l-245 103 -90 -7 c-291 -21 -578 -147 -791 -348 -133
-126 -270 -315 -337 -465 l-19 -41 -101 -7 c-521 -36 -899 -261 -1139 -677
-27 -45 -48 -87 -48 -93 0 -17 185 -240 276 -332 l82 -84 -29 -56 c-24 -46
-29 -67 -29 -128 0 -90 7 -104 173 -342 426 -615 673 -989 922 -1400 79 -131
90 -143 142 -150 40 -5 42 -5 268 92 565 243 1193 406 1709 444 l118 9 93 -78
c51 -42 138 -113 195 -156 l102 -79 -104 -6 c-111 -6 -186 -26 -241 -64 -30
-19 -52 -24 -153 -29 -207 -12 -444 -36 -599 -62 -186 -31 -243 -44 -423 -95
l-142 -42 -79 27 c-311 102 -572 -32 -614 -318 -9 -65 -14 -75 -56 -119 -95
-100 -243 -188 -388 -229 -112 -32 -314 -32 -428 0 -391 110 -658 457 -691
898 -8 106 7 231 42 363 14 51 24 94 22 96 -2 2 -42 19 -90 37 -48 19 -113 50
-145 69 -88 52 -250 217 -322 329 -286 444 -319 1092 -81 1585 65 134 120 214
210 309 170 178 334 263 548 281 l79 7 6 112 c3 61 13 136 23 166 75 248 275
423 533 467 94 16 108 16 213 1 62 -9 114 -15 115 -14 1 1 11 49 23 106 63
313 172 576 346 836 104 157 183 252 320 384 206 198 364 310 609 430 398 195
813 275 1250 240z m-1376 -2192 c118 -251 191 -533 191 -744 l0 -72 -114 -76
c-218 -145 -398 -227 -585 -265 -63 -13 -70 -9 -148 92 -45 58 -86 87 -123 87
-53 0 -120 -65 -120 -117 0 -12 23 -65 51 -118 l50 -97 -37 -57 c-48 -74 -229
-254 -324 -322 -41 -30 -120 -83 -174 -118 l-99 -64 -121 62 c-129 65 -188
106 -328 226 -98 84 -268 271 -268 294 0 23 104 153 178 222 168 157 374 248
641 283 188 24 191 24 228 -28 50 -71 124 -81 181 -25 49 48 49 102 3 168 -23
32 -18 47 64 187 172 291 426 483 730 549 33 7 65 14 72 14 7 1 30 -36 52 -81z
m884 -324 c384 -96 548 -141 561 -154 23 -22 35 -18 -154 -50 -169 -28 -414
-81 -654 -141 -109 -27 -202 -49 -206 -49 -4 0 -10 39 -14 88 -8 104 -47 304
-75 385 -11 31 -16 57 -10 57 5 0 253 -61 552 -136z m1029 -406 c-8 -35 -24
-108 -36 -162 l-22 -100 -70 -12 c-88 -15 -151 -45 -214 -101 -57 -51 -110
-149 -117 -217 l-5 -45 -75 -6 c-40 -4 -77 -4 -80 -1 -17 17 56 613 77 626 6
3 117 21 248 39 130 18 244 34 252 36 58 11 59 10 42 -57z m456 -38 c117 -45
162 -67 162 -79 0 -9 -20 -115 -44 -236 l-43 -220 -34 4 c-19 2 -70 6 -113 10
l-80 6 -28 56 c-16 31 -44 75 -63 97 -19 22 -35 48 -35 59 0 25 44 216 70 302
13 46 26 71 33 68 7 -3 85 -33 175 -67z m-1268 -186 c-11 -87 -26 -224 -33
-304 l-12 -144 -165 -27 c-91 -14 -220 -38 -288 -53 -67 -14 -128 -26 -136
-26 -13 0 -31 128 -56 394 -14 150 -15 143 23 154 150 47 676 175 685 167 1
-1 -7 -73 -18 -161z m1765 -4 c50 -19 92 -35 94 -37 2 -1 -14 -67 -37 -145
-23 -79 -49 -174 -58 -211 -10 -41 -21 -66 -28 -63 -6 2 -46 16 -88 31 -57 20
-78 31 -78 44 0 10 18 107 40 216 22 109 40 201 40 203 0 2 6 2 13 0 6 -3 53
-20 102 -38z m-2654 -449 c11 -79 18 -149 15 -156 -2 -7 -40 -22 -84 -34 -91
-24 -316 -97 -415 -135 -36 -14 -69 -22 -71 -18 -3 5 -21 53 -41 107 -20 55
-49 134 -65 175 -15 41 -25 76 -21 77 275 74 436 143 611 260 l35 23 7 -77 c5
-43 17 -143 29 -222z m1722 121 c27 -29 34 -45 224 -517 265 -658 316 -781
330 -806 18 -30 71 -59 107 -59 30 0 87 39 103 70 7 14 13 37 13 51 0 15 -40
127 -90 250 -49 122 -90 235 -90 251 0 57 51 121 108 137 42 13 104 -5 135
-37 16 -17 74 -148 152 -342 71 -177 136 -325 149 -338 32 -33 99 -41 142 -17
34 18 64 67 64 104 0 11 -43 129 -96 262 -104 261 -111 295 -68 352 58 77 180
78 230 2 9 -13 72 -163 140 -332 139 -345 150 -363 228 -363 72 0 135 68 122
133 -3 17 -45 126 -92 243 -91 226 -93 237 -58 306 19 36 78 71 123 71 44 0
95 -25 116 -56 20 -31 209 -497 256 -632 74 -214 107 -444 118 -840 5 -148 5
-274 1 -278 -7 -8 -173 -76 -896 -367 l-392 -158 -68 60 c-84 73 -167 129
-299 201 -528 289 -638 357 -910 562 -240 182 -345 272 -362 313 -37 89 32
192 130 192 57 0 439 -213 666 -371 68 -47 92 -59 123 -59 73 0 128 50 128
115 0 14 -26 88 -59 163 -32 75 -96 227 -141 337 -45 110 -181 436 -302 725
-121 289 -223 541 -225 562 -6 41 24 105 60 128 56 35 138 27 180 -18z m436
-238 l32 -7 -7 -55 c-14 -113 -17 -114 -52 -26 -18 43 -32 82 -32 87 0 9 17 9
59 1z m-2986 -154 c69 -175 70 -160 -15 -194 -40 -16 -151 -65 -247 -108 -96
-42 -175 -76 -176 -75 -1 1 -15 25 -32 53 l-31 52 91 67 c51 38 151 127 222
200 72 72 133 129 136 126 4 -3 27 -58 52 -121z m3370 51 c29 -12 47 -27 47
-37 0 -13 -6 -15 -27 -9 -16 5 -57 9 -93 11 l-65 3 4 33 c1 18 5 36 7 40 5 7
49 -7 127 -41z m-1131 -256 c64 -154 117 -282 118 -285 0 -3 -101 -6 -224 -6
l-225 -1 -5 51 c-10 93 -18 461 -11 488 8 31 27 36 150 34 l80 -1 117 -280z
m-570 -27 c2 -150 3 -275 2 -277 -2 -2 -58 -9 -126 -17 -68 -8 -167 -21 -221
-30 -53 -10 -99 -15 -102 -12 -5 5 -79 333 -96 431 -11 56 -10 70 1 77 25 15
446 97 511 99 l27 1 4 -272z m-778 95 c2 -10 12 -56 21 -103 18 -92 72 -335
81 -362 4 -13 -11 -20 -88 -38 -51 -12 -155 -39 -232 -62 -76 -22 -142 -36
-146 -31 -7 6 -170 429 -170 439 0 8 484 169 522 173 4 1 9 -7 12 -16z m-1919
-210 c44 -22 113 -52 153 -68 l74 -27 49 22 c27 13 51 22 53 19 2 -2 15 -22
29 -45 l25 -41 -61 -30 c-34 -17 -111 -60 -172 -96 l-110 -66 -17 22 c-10 12
-76 109 -148 215 -119 175 -141 218 -124 235 3 3 42 -18 87 -48 45 -29 118
-70 162 -92z m1178 -45 c82 -215 157 -421 154 -424 -2 -2 -47 -20 -102 -39
-54 -20 -143 -54 -197 -77 -54 -22 -100 -39 -102 -37 -16 22 -216 379 -216
386 0 11 87 53 300 145 144 62 155 65 163 46z m-565 -478 c56 -98 102 -183
102 -187 0 -7 -299 -153 -314 -153 -3 0 -57 77 -121 172 l-114 172 157 87 c86
48 164 88 172 88 9 0 55 -70 118 -179z m2708 144 l82 -7 6 -66 c3 -36 9 -106
12 -155 l7 -90 -39 24 c-124 74 -205 92 -316 68 -40 -9 -75 -14 -77 -12 -10 9
-42 224 -35 236 6 9 244 11 360 2z m-592 -36 c3 -13 12 -79 21 -148 9 -69 23
-158 31 -198 10 -54 11 -79 3 -94 -6 -11 -14 -50 -17 -87 l-7 -66 -145 -17
c-80 -9 -146 -15 -147 -14 -5 4 -164 589 -161 591 5 5 351 53 385 54 26 1 34
-3 37 -21z m-571 -362 c42 -156 77 -288 77 -295 0 -6 -12 -11 -27 -12 -16 0
-102 -17 -193 -38 -91 -21 -168 -35 -172 -32 -7 7 -196 505 -200 529 -2 12 17
22 77 40 93 27 335 91 350 92 6 0 45 -128 88 -284z m-639 -172 c56 -150 95
-269 90 -273 -10 -9 -263 -91 -279 -91 -5 0 -71 109 -146 243 -109 195 -133
244 -121 251 15 8 343 135 352 136 3 0 50 -120 104 -266z m-662 -1 c9 -16 68
-122 133 -237 88 -159 113 -211 103 -217 -7 -5 -48 -22 -90 -39 -43 -17 -103
-41 -133 -55 l-55 -24 -14 22 c-69 114 -188 305 -223 359 -24 37 -43 71 -43
76 0 10 267 141 290 142 9 0 23 -12 32 -27z m2436 -833 c92 -30 174 -84 249
-164 152 -159 193 -352 105 -481 -54 -78 -132 -111 -247 -102 -248 18 -496
250 -513 477 -6 91 11 149 60 205 72 82 213 108 346 65z m2789 -236 c29 -71
52 -134 52 -140 1 -6 -63 -37 -141 -69 -482 -196 -1104 -445 -1113 -445 -5 0
-25 37 -43 83 -19 45 -44 108 -57 139 l-23 57 71 29 c40 17 302 122 582 235
281 113 530 214 555 225 25 11 50 19 55 18 6 -1 33 -61 62 -132z m-3397 84 c0
-45 -9 -48 -211 -63 -107 -9 -297 -26 -423 -40 -218 -24 -246 -24 -246 -6 0
20 518 104 740 120 58 5 113 9 123 10 11 1 17 -6 17 -21z m-1329 -38 c211 -39
408 -251 409 -439 0 -139 -90 -230 -226 -231 -173 0 -358 120 -442 289 -32 64
-36 82 -37 150 0 145 71 218 236 240 4 1 31 -3 60 -9z m-1267 -1585 c62 -17
129 -46 159 -69 17 -13 15 -20 -38 -125 -30 -61 -59 -111 -63 -111 -4 0 -12 4
-17 9 -6 5 -37 19 -70 31 -73 27 -195 30 -276 6 -240 -69 -325 -347 -169 -545
66 -84 225 -142 342 -125 55 7 166 43 173 55 4 5 10 9 16 9 8 0 119 -210 119
-225 0 -3 -33 -22 -73 -41 -87 -41 -199 -64 -311 -64 -374 0 -678 323 -635
675 11 88 22 123 68 210 78 151 230 265 426 321 65 18 267 12 349 -11z m978
14 c161 -33 323 -161 399 -314 153 -310 35 -689 -259 -835 -181 -90 -424 -78
-591 29 -210 135 -317 419 -252 673 31 120 73 193 165 284 86 86 161 131 266
158 66 18 199 20 272 5z m6093 -19 c64 -20 118 -44 153 -68 11 -7 2 -33 -42
-121 -31 -61 -58 -111 -60 -111 -2 0 -28 11 -57 24 -117 54 -260 52 -376 -5
-111 -54 -174 -152 -181 -281 -5 -91 12 -151 63 -220 70 -95 168 -140 310
-141 89 0 108 5 232 59 7 4 33 -37 68 -107 63 -126 66 -114 -30 -159 -128 -60
-317 -77 -459 -40 -120 30 -209 82 -302 175 -94 93 -145 184 -170 305 -64 305
154 621 485 705 84 22 276 13 366 -15z m-8707 -107 l-3 -118 -202 -3 -203 -2
0 -115 0 -115 195 0 195 0 0 -120 0 -120 -195 0 -195 0 0 -115 0 -115 203 -2
202 -3 3 -117 3 -118 -341 0 -340 0 0 590 0 590 340 0 341 0 -3 -117z m3686
-218 c71 -185 131 -333 134 -330 3 3 62 153 131 333 l126 327 145 3 145 3 48
-548 c27 -302 51 -567 54 -590 l6 -43 -135 0 -135 0 -6 48 c-3 26 -16 181 -28
345 -13 163 -25 297 -28 297 -4 0 -36 -87 -73 -193 -37 -105 -90 -258 -118
-339 l-52 -148 -82 0 -81 0 -120 342 c-101 291 -121 338 -127 313 -4 -17 -16
-158 -28 -315 -11 -157 -23 -300 -26 -317 l-5 -33 -135 0 -134 0 5 38 c3 20
25 271 50 557 25 286 48 535 51 553 l5 32 142 0 143 0 128 -335z m1300 208
c161 -420 210 -543 214 -538 3 3 63 153 132 333 l126 327 144 0 145 0 47 -520
c25 -286 49 -550 53 -587 l6 -68 -135 0 c-75 0 -136 4 -136 9 0 4 -9 111 -19
237 -11 126 -23 277 -27 337 -4 59 -9 107 -13 107 -3 0 -18 -35 -33 -78 -15
-42 -68 -195 -119 -339 l-91 -263 -82 0 -82 0 -119 342 c-93 267 -120 336
-126 317 -4 -13 -17 -157 -29 -319 -11 -162 -23 -307 -26 -322 l-6 -28 -134 0
-134 0 6 43 c2 23 25 269 49 547 25 278 47 524 50 548 l6 42 142 0 142 0 49
-127z m1676 7 l0 -120 -202 0 -203 0 3 -115 3 -115 190 0 189 0 0 -120 0 -120
-189 0 -190 0 -3 -115 -3 -115 203 0 202 0 0 -120 0 -120 -337 0 -338 0 3 562
c1 310 2 575 2 591 l0 27 335 0 335 0 0 -120z m719 109 c112 -25 201 -94 245
-188 17 -38 21 -65 21 -151 0 -93 -3 -112 -26 -161 -33 -70 -90 -128 -156
-160 l-51 -24 199 -238 c110 -130 199 -240 199 -242 0 -3 -76 -5 -168 -5
l-169 0 -173 225 c-95 124 -175 223 -178 221 -2 -3 -4 -104 -3 -226 l2 -220
-138 0 -138 0 2 570 c2 314 3 579 3 590 0 19 7 20 243 20 133 0 262 -5 286
-11z m2299 -106 l-3 -118 -202 -3 -203 -2 0 -115 0 -115 195 0 195 0 0 -120 0
-120 -195 0 -195 0 0 -115 0 -115 203 -2 202 -3 3 -117 3 -118 -341 0 -340 0
0 590 0 590 340 0 341 0 -3 -117z m-9038 -653 l0 -110 -230 0 -230 0 0 110 0
110 230 0 230 0 0 -110z m1673 -876 c26 -9 47 -20 47 -24 0 -8 -19 -57 -26
-68 -1 -2 -23 4 -48 12 -86 29 -161 11 -154 -37 3 -22 25 -33 132 -62 77 -21
116 -59 116 -112 0 -48 -29 -97 -72 -120 -49 -26 -177 -24 -240 4 -27 12 -48
24 -48 27 0 3 7 21 16 40 l17 34 45 -21 c53 -23 143 -27 167 -7 9 7 15 23 13
34 -3 21 -47 41 -147 66 -100 26 -135 121 -70 195 17 19 45 39 63 44 50 15
139 12 189 -5z m422 -80 c30 -49 57 -88 61 -88 4 1 31 39 59 85 l52 84 52 3
51 3 -85 -141 -85 -141 0 -75 0 -74 -50 0 -50 0 0 78 0 77 -80 133 c-44 73
-80 136 -80 140 0 4 23 6 51 6 l51 -2 53 -88z m1111 85 c53 -14 61 -27 44 -70
-9 -21 -18 -28 -29 -24 -81 32 -162 30 -180 -4 -17 -31 9 -50 99 -77 110 -31
143 -62 143 -130 0 -41 -4 -51 -36 -80 -44 -41 -105 -58 -179 -50 -69 7 -138
33 -138 53 0 8 7 27 15 42 l14 29 41 -20 c48 -24 140 -29 164 -9 19 16 21 45
4 59 -7 5 -50 20 -94 32 -103 27 -139 60 -139 124 0 24 8 54 18 70 38 58 148
81 253 55z m629 0 c81 -23 155 -124 155 -213 0 -93 -68 -183 -159 -210 -67
-20 -95 -20 -154 -2 -63 19 -102 49 -134 103 -68 116 -9 273 119 320 42 15
122 16 173 2z m1975 -39 l0 -40 -65 0 -65 0 0 -175 0 -175 -55 0 -55 0 0 175
0 174 -67 3 c-66 3 -68 4 -71 31 -6 53 -8 52 192 49 l186 -3 0 -39z m925 39
c53 -15 129 -91 144 -144 60 -216 -178 -376 -371 -250 -117 77 -124 263 -13
352 63 51 152 66 240 42z m-6255 -39 l0 -40 -115 0 -115 0 0 -45 0 -45 100 0
100 0 0 -40 0 -40 -100 0 -100 0 0 -50 0 -50 120 0 120 0 0 -40 0 -40 -170 0
-170 0 0 215 0 215 165 0 165 0 0 -40z m606 -170 c51 -113 93 -208 93 -212 1
-5 -23 -8 -52 -8 l-53 0 -15 43 -16 42 -102 3 -101 3 -20 -46 c-19 -45 -19
-45 -70 -45 -27 0 -50 2 -50 5 0 5 167 381 182 408 7 14 19 17 61 15 l51 -3
92 -205z m3264 35 l0 -175 110 0 110 0 0 -40 0 -40 -160 0 -160 0 0 215 0 215
50 0 50 0 0 -175z m560 35 c0 -181 12 -210 91 -210 80 0 99 43 99 220 l0 130
51 0 51 0 -4 -158 c-3 -152 -4 -160 -30 -199 -36 -54 -87 -78 -168 -78 -82 0
-137 29 -171 89 -21 37 -24 56 -27 194 l-4 152 56 0 56 0 0 -140z m1250 -75
l0 -215 -55 0 -55 0 0 215 0 215 55 0 55 0 0 -215z m1181 89 l104 -127 3 127
3 126 49 0 50 0 0 -215 0 -215 -42 0 c-43 0 -43 1 -150 131 l-108 131 0 -131
0 -131 -50 0 -50 0 0 215 0 215 44 0 44 0 103 -126z"/>
<path d="M6289 10286 c-153 -41 -186 -196 -69 -329 32 -36 32 -37 60 -21 23
14 31 15 56 3 22 -11 30 -22 32 -47 4 -41 29 -52 114 -52 94 0 165 46 192 124
11 33 8 117 -5 130 -2 3 -22 0 -44 -6 -110 -30 -225 54 -225 163 0 49 0 49
-32 48 -18 0 -54 -6 -79 -13z"/>
<path d="M5215 9680 c3 -5 -2 -10 -12 -10 -60 0 -142 -47 -127 -72 4 -7 3 -8
-4 -4 -15 9 -34 -62 -22 -84 5 -10 7 -20 5 -22 -9 -8 25 -79 51 -106 13 -15
24 -29 24 -33 0 -9 34 -7 40 2 3 4 23 11 45 14 52 8 100 -21 110 -64 4 -17 11
-29 16 -25 5 3 9 -1 9 -8 0 -8 3 -9 8 -3 4 6 25 11 47 13 101 7 160 114 121
217 -17 44 -19 45 -62 45 -24 0 -47 1 -51 2 -21 5 -84 75 -95 104 -6 18 -21
35 -32 38 -35 9 -78 7 -71 -4z"/>
<path d="M8228 6631 c-29 -26 -33 -36 -33 -78 0 -89 81 -172 177 -181 56 -5
89 12 114 59 47 93 -62 229 -184 229 -32 0 -49 -7 -74 -29z"/>
<path d="M6361 6453 c-32 -40 -35 -66 -13 -116 46 -104 196 -147 237 -67 21
41 19 79 -8 122 -36 60 -82 88 -143 88 -45 0 -56 -4 -73 -27z"/>
<path d="M5895 4857 c-78 -30 -121 -71 -163 -152 -65 -129 -48 -333 37 -435
16 -20 53 -49 82 -65 49 -27 63 -30 144 -30 136 0 201 39 260 156 99 193 14
473 -158 524 -59 18 -159 18 -202 2z"/>
<path d="M10625 4739 l0 -151 83 4 c62 3 89 9 110 24 42 32 64 81 59 137 -8
93 -67 137 -182 137 l-70 0 0 -151z"/>
<path d="M7829 3375 c-66 -36 -80 -157 -24 -215 72 -75 198 -40 226 63 14 54
-10 121 -55 148 -37 22 -109 25 -147 4z"/>
<path d="M10729 3373 c-84 -52 -77 -193 12 -239 47 -24 112 -14 150 22 67 65
56 179 -22 220 -37 19 -108 17 -140 -3z"/>
<path d="M5053 3285 l-32 -75 65 0 c35 0 64 3 64 8 0 13 -55 142 -61 142 -3 0
-19 -34 -36 -75z"/>
</g>
</svg>
